<svg width="160" height="160" viewBox="0 0 160 160" fill="none" xmlns="http://www.w3.org/2000/svg">
<rect width="160" height="160" rx="36" fill="#065741"/>
<circle cx="80.1562" cy="53.5938" r="35.1562" fill="white"/>
<path d="M68.8489 93.125H90.5434C92.3799 93.125 92.8074 95.6938 91.0698 96.2886L87.509 98.5671C86.6473 99.1185 86.126 100.071 86.126 101.094V137.949C86.126 138.16 86.1037 138.371 86.0595 138.577L84.8363 144.29L82.1122 147.47C80.8631 148.928 78.5846 148.854 77.4331 147.318L75.1637 144.29L73.7485 138.625C73.6891 138.387 73.6591 138.143 73.6591 137.898V101.167C73.6591 100.105 73.0968 99.1211 72.181 98.582L68.2854 96.2886C66.5749 95.6592 67.0263 93.125 68.8489 93.125Z" fill="white"/>
</svg>
